<?xml version="1.0" standalone="no"?>
<!DOCTYPE svg PUBLIC "-//W3C//DTD SVG 20010904//EN"
 "http://www.w3.org/TR/2001/REC-SVG-20010904/DTD/svg10.dtd">
<svg version="1.0" xmlns="http://www.w3.org/2000/svg"
 width="800.000000pt" height="800.000000pt" viewBox="0 0 800.000000 800.000000"
 preserveAspectRatio="xMidYMid meet">

<g transform="translate(0.000000,800.000000) scale(0.100000,-0.100000)"
fill="#000000" stroke="none">
<path d="M1165 6326 c-13 -9 -31 -12 -49 -9 -20 4 -33 1 -40 -9 -13 -17 -70
-54 -98 -64 -10 -4 -18 -14 -18 -24 0 -10 -6 -23 -13 -29 -39 -32 -41 -110
-38 -1381 2 -674 5 -1295 7 -1380 4 -200 21 -421 34 -434 5 -5 10 -23 10 -38
0 -16 4 -36 9 -46 5 -9 14 -37 20 -62 26 -98 42 -149 56 -176 8 -16 15 -34 15
-39 0 -6 13 -35 30 -65 16 -30 34 -66 40 -80 5 -14 13 -30 17 -36 5 -7 30 -45
57 -85 27 -41 55 -78 62 -82 8 -4 14 -14 14 -22 0 -7 18 -29 40 -48 22 -19 40
-39 40 -45 0 -24 317 -327 353 -338 12 -3 33 -16 47 -28 14 -13 52 -40 85 -60
33 -21 71 -46 85 -56 14 -9 41 -20 61 -24 20 -3 44 -15 53 -25 10 -10 37 -22
61 -26 25 -3 48 -12 52 -20 5 -8 26 -18 48 -24 22 -5 58 -16 80 -25 22 -8 57
-15 78 -16 26 0 37 -4 37 -15 0 -16 2 -16 94 -20 32 -2 62 -8 66 -15 8 -14
112 -29 200 -30 46 0 61 -3 50 -10 -20 -13 422 -13 609 1 79 5 175 16 213 24
38 8 81 15 96 15 15 0 65 11 112 24 47 14 135 38 195 54 343 93 677 278 904
501 134 132 237 251 265 307 11 22 30 53 42 70 13 17 38 62 57 100 18 38 39
78 45 89 18 32 62 143 62 158 0 8 9 36 19 63 55 140 96 456 96 729 0 339 -50
778 -95 845 -9 14 -20 37 -23 51 -11 43 -99 170 -168 239 -138 142 -346 244
-554 274 -148 21 -245 21 -284 -1 -17 -10 -31 -21 -31 -24 0 -4 -14 -5 -31 -3
-38 5 -65 -9 -107 -53 -72 -77 -67 -24 -70 -673 -2 -554 -8 -687 -37 -870 -10
-62 -67 -274 -75 -280 -4 -3 -16 -31 -25 -62 -10 -31 -22 -55 -25 -53 -4 3
-15 -15 -24 -39 -9 -23 -24 -51 -34 -62 -9 -10 -33 -40 -52 -66 -19 -26 -49
-55 -66 -64 -18 -10 -39 -30 -48 -45 -9 -16 -27 -34 -40 -41 -13 -7 -41 -23
-63 -35 -21 -12 -48 -33 -58 -47 -11 -14 -24 -26 -30 -26 -16 0 -135 -58 -151
-75 -20 -19 -69 -31 -185 -45 -99 -11 -196 -3 -239 20 -12 6 -44 18 -71 26
-145 43 -426 298 -507 459 -11 22 -33 67 -49 100 -40 81 -89 231 -110 340 -16
83 -18 204 -23 1502 -4 1238 -7 1414 -20 1427 -23 22 -280 38 -685 43 -308 4
-363 2 -380 -11z"/>
<path d="M2788 6320 c-32 -11 -61 -19 -65 -18 -24 6 -82 -29 -108 -66 -48 -66
-56 -86 -61 -160 -5 -66 -7 -1772 -3 -2321 1 -132 5 -267 10 -299 15 -115 52
-251 76 -283 12 -17 23 -36 23 -41 0 -5 12 -23 28 -39 15 -17 40 -47 56 -67
16 -21 37 -36 50 -36 11 0 31 -11 44 -25 54 -56 173 -77 457 -79 127 0 132 0
200 32 165 78 271 191 340 363 l39 94 3 530 c8 1283 10 1389 24 1423 l13 32
101 -4 c55 -2 186 -7 290 -10 252 -9 403 -24 435 -45 14 -9 32 -16 40 -16 35
-1 100 -17 100 -25 0 -5 21 -12 48 -16 53 -8 152 -50 152 -64 0 -5 12 -13 28
-16 55 -14 124 -53 179 -100 31 -27 60 -50 64 -52 5 -2 9 -10 9 -18 0 -8 6
-14 13 -14 6 0 28 -22 47 -48 19 -26 45 -58 58 -72 12 -14 22 -29 22 -35 0 -6
13 -26 28 -45 16 -19 39 -56 52 -82 13 -27 28 -48 33 -48 5 0 7 -7 4 -15 -4
-8 -2 -17 2 -19 13 -8 89 -270 102 -351 48 -294 51 -335 51 -665 0 -228 -3
-325 -11 -328 -6 -2 -9 -7 -7 -11 7 -10 -30 -264 -41 -287 -5 -10 -10 -32 -12
-49 -1 -16 -3 -37 -5 -45 -1 -8 -6 -33 -11 -55 -4 -22 -12 -48 -16 -57 -5 -10
-11 -30 -13 -45 -12 -79 -59 -227 -95 -297 -11 -21 -18 -42 -16 -46 3 -5 -2
-10 -10 -14 -8 -3 -15 -12 -15 -19 0 -12 -14 -42 -83 -172 -9 -16 -22 -45 -29
-62 -7 -18 -16 -33 -20 -33 -5 0 -8 -6 -8 -14 0 -7 -9 -25 -21 -40 -11 -15
-22 -32 -23 -39 -2 -6 -9 -25 -15 -42 -7 -16 -15 -47 -18 -67 -3 -21 -10 -38
-14 -38 -5 0 -9 -7 -9 -15 0 -8 5 -15 10 -15 6 0 10 -8 10 -18 0 -19 26 -49
45 -52 5 -1 13 7 17 17 6 13 7 9 4 -12 -7 -45 4 -84 26 -96 21 -11 129 10 198
39 19 8 76 29 125 47 261 94 387 156 535 264 47 34 101 73 120 85 48 32 285
275 359 367 34 43 79 106 101 140 48 78 140 240 140 247 0 3 13 35 29 71 86
200 153 505 165 761 13 269 -36 687 -109 930 -13 41 -33 109 -45 150 -158 534
-548 1004 -1036 1248 -66 33 -159 74 -209 92 -49 18 -106 38 -125 46 -19 7
-51 16 -70 19 -19 4 -55 14 -80 22 -87 29 -415 72 -750 99 -118 9 -262 20
-320 25 -58 4 -393 12 -745 18 -352 6 -683 12 -735 15 -78 5 -105 2 -152 -14z"/>
</g>
</svg>
